<?xml version="1.0" encoding="utf-8"?>
<!-- Generator: Adobe Illustrator 21.1.0, SVG Export Plug-In . SVG Version: 6.00 Build 0)  -->
<svg version="1.1" id="Layer_1" xmlns="http://www.w3.org/2000/svg" xmlns:xlink="http://www.w3.org/1999/xlink" x="0px" y="0px"
	 viewBox="-10 -10 1258.1 580.7" style="background-color:#1F1915; fill:#ECE5D3;" xml:space="preserve" >
<style type="text/css">
	.st0{fill:#edd49a;}
	.st1{font-family:'Consolas';}
	.st2{font-size:34px;}
	.st3{fill:#889F95;}
	.st4{fill:#889F95;}
	.st5{font-family:'PalatinoLinotype-Roman';}
	.st6{fill:#212CA4;}
	.st7{letter-spacing:-1;}
	.st8{font-family:'PalatinoLinotype-Italic';}
	.st9{fill:none;stroke:#889F95;stroke-width:3;stroke-miterlimit:10;}
</style>
<title>ggplotcode</title>
<text transform="matrix(1 0 0 1 341.69 297.42)" class="st0 st1 st2">ggplot</text>
<text transform="matrix(1 0 0 1 453.85 297.42)" class="st1 st2">(d, </text>
<text transform="matrix(1 0 0 1 528.62 297.42)" class="st0 st1 st2">aes</text>
<text transform="matrix(1 0 0 1 584.7 297.42)" class="st1 st2">(avgphgt,height)) +</text>
<text transform="matrix(1 0 0 1 341.69 338.22)" class="st1 st2">  </text>
<text transform="matrix(1 0 0 1 379.08 338.22)" class="st0 st1 st2">geom_point</text>
<text transform="matrix(1 0 0 1 566.01 338.22)" class="st1 st2">() +</text>
<text transform="matrix(1 0 0 1 341.69 379.02)" class="st1 st2">  </text>
<text transform="matrix(1 0 0 1 379.08 379.02)" class="st0 st1 st2">geom_smooth</text>
<text transform="matrix(1 0 0 1 584.7 379.02)" class="st1 st2">(method = &quot;</text>
<text transform="matrix(1 0 0 1 790.33 379.02)" class="st3 st1 st2">lm</text>
<text transform="matrix(1 0 0 1 827.72 379.02)" class="st1 st2">&quot;)</text>
<text transform="matrix(1 0 0 1 30.51 69.61)" class="st0 st1 st2">ggplot </text>
<text transform="matrix(1 0 0 1 148.67 69.61)" class="st4 st5 st2"> is the</text>
<text transform="matrix(1 0 0 1 0 110.41)" class="st4 st5 st2">plotting function.</text>
<text transform="matrix(1 0 0 1 109.36 299.94)" class="st4 st5 st2">P</text>
<text transform="matrix(1 0 0 1 128.82 299.94)" class="st4 st5 st2">lot the data</text>
<text transform="matrix(1 0 0 1 132.58 340.74)" class="st4 st5 st2">as points.</text>
<text transform="matrix(1 0 0 1 215.13 499.1)" class="st4 st5 st2">Make a line.</text>
<text transform="matrix(1 0 0 1 525.37 499.94)" class="st4 st5 st2">Use the linear model</text>
<text transform="matrix(1 0 0 1 556.74 540.74)" class="st4 st5 st2">to make the line.</text>
<text transform="matrix(1 0 0 1 398.42 172.21)" class="st4 st5 st2">Data</text>
<text transform="matrix(1 0 0 1 452.66 29.17)" class="st0 st1 st2">aes</text>
<text transform="matrix(1 0 0 1 508.74 29.17)" class="st5 st2"> </text>
<text transform="matrix(1 0 0 1 517.24 29.17)" class="st4 st5 st2">tells the ggplot function</text>
<text transform="matrix(1 0 0 1 432.48 69.97)" class="st4 st5 st2">which role each variable plays.</text>
<text transform="matrix(1 0 0 1 332.4897 107.77)" class="st4 st5 st2">In this case, we want to set the x and y axes.</text>
<text transform="matrix(1 0 0 1 584.39 165.49)" class="st4 st5 st2 st7">V</text>
<text transform="matrix(1 0 0 1 606.2 165.49)" class="st4 st5 st2">ariable</text>
<text transform="matrix(1 0 0 1 579.44 206.29)" class="st4 st5 st2">on </text>
<text transform="matrix(1 0 0 1 626.29 206.29)" class="st4 st8 st2">x</text>
<text transform="matrix(1 0 0 1 643.29 206.29)" class="st4 st5 st2">-axis</text>
<text transform="matrix(1 0 0 1 815.32 165.32)" class="st4 st5 st2 st7">V</text>
<text transform="matrix(1 0 0 1 837.13 165.32)" class="st4 st5 st2">ariable</text>
<text transform="matrix(1 0 0 1 810.37 206.12)" class="st4 st5 st2">on </text>
<text transform="matrix(1 0 0 1 857.22 206.12)" class="st4 st8 st2">y</text>
<text transform="matrix(1 0 0 1 874.22 206.12)" class="st4 st5 st2">-axis</text>
<text transform="matrix(1 0 0 1 973.42 324.15)" class="st4 st5 st2">The + connects all</text>
<text transform="matrix(1 0 0 1 975.04 364.95)" class="st4 st5 st2">the parts of the plot.</text>
<line class="st9" x1="451.2" y1="183.2" x2="476.3" y2="247.5"/>
<path class="st4" d="M475.2,244.6l4.3-5.6l0.2,0.1l-0.1,10.6l1.6,10.4l-5.9-8.8l-7.2-7.8v-0.2L475.2,244.6z"/>
<line class="st9" x1="640.2" y1="213.2" x2="644.8" y2="255.6"/>
<path class="st4" d="M644.5,252.6l5.6-4.3l0.2,0.2l-2.8,10.2l-1.2,10.5l-3.4-10l-5-9.4l0.1-0.2L644.5,252.6z"/>
<line class="st9" x1="851.2" y1="218.2" x2="827.4" y2="257.5"/>
<path class="st4" d="M828.9,254.9h7.1v0.3l-8.5,6.4l-7.3,7.6l3.4-10l1.8-10.5l0.2-0.1L828.9,254.9z"/>
<line class="st9" x1="517.2" y1="122.2" x2="539.9" y2="254.7"/>
<path class="st4" d="M539.4,251.7l5.3-4.6l0.2,0.2l-2.2,10.4c-0.2,3.5-0.3,7-0.5,10.5l-4-9.8l-5.5-9.1l0.1-0.2L539.4,251.7z"/>
<line class="st9" x1="941.2" y1="332.2" x2="667.9" y2="330.3"/>
<path class="st4" d="M671,330.3l3.6,6.1l-0.2,0.1l-9.8-4l-10.3-2.3l10.3-2.2l9.9-3.9l0.2,0.1L671,330.3z"/>
<line class="st9" x1="941.2" y1="332.2" x2="926.5" y2="308.8"/>
<path class="st4" d="M928.1,311.4l-3.2,6.3l-0.2-0.1l-1.9-10.4l-3.6-9.9l7.4,7.5l8.6,6.3v0.2L928.1,311.4z"/>
<line class="st9" x1="681.2" y1="466.2" x2="717.8" y2="398.3"/>
<path class="st4" d="M716.3,400.9l-7.1,0.4V401l8.1-6.8l6.9-8l-2.9,10.2l-1.2,10.5l-0.2,0.1L716.3,400.9z"/>
<line class="st9" x1="350.2" y1="463.2" x2="437.2" y2="399.3"/>
<path class="st4" d="M434.7,401.1l-6.5-2.7l0.1-0.2l10.3-2.7l9.7-4.3l-7,7.9l-5.6,9h-0.2L434.7,401.1z"/>
<line class="st9" x1="131.2" y1="125.2" x2="369.3" y2="259.5"/>
<path class="st4" d="M366.7,258l-0.2-7.1h0.3l6.7,8.3l7.9,7l-10.1-3.1l-10.5-1.4l-0.1-0.2L366.7,258z"/>
<line class="st9" x1="273.2" y1="314.2" x2="353.8" y2="328.8"/>
<path class="st4" d="M350.8,328.3l-2.5-6.6l0.2-0.1l9,5.6l9.8,4.1l-10.6,0.4l-10.4,2.1l-0.2-0.1L350.8,328.3z"/>
</svg>
